# xmcd
#
# Track frame offsets: 
#        150
#        25268
#        49141
#        70948
#        93589
#        114307
#        132409
#        155543
#        173017
#        194552
#        209554
#        233310
#        255172
#        269438
#        290319
#        307559
#
# Disc length: 4420 seconds
#
# Revision: 0
# Processed by: cddbd v1.5.2PL0 Copyright (c) Steve Scherf et al.
# Submitted via: ExactAudioCopy v0.99pb4
#
DISCID=d6114210
DTITLE=Various Artist - Showcasing The Blues - More Of South Florida's Finest
DTITLE=Blues Bands
DYEAR=2004
DGENRE=Blues
TTITLE0=Like A Rooster On A Hen - Jr. Drinkwater and The Thirst Quencher
TTITLE0=s
TTITLE1=Cadillac Assembly Line - Albert Castiglia
TTITLE2=Oh Baby, Baby - Fleet Starbuck
TTITLE3=Ghosts Of Missisippi - Joey Gilmore
TTITLE4=It's A Low Down Dirty Deal - Joel Dasilva and The Sideburns
TTITLE5=Teasing The Trains - Iko Iko
TTITLE6=You Can Hold My Hand - The Jeff Prine Group and Juanita Dixon
TTITLE7=Goin' Insane - Ernie Southern
TTITLE8=Gypsy Curse - Midnite Johnny
TTITLE9=Born To Boogie - Outta d'Blues
TTITLE10=The Key - The Fabulous Fleetwoods
TTITLE11=Laid Off - Robert Rand and Nick Trill
TTITLE12=Wait On Time - The Shadowcasters
TTITLE13=Hoochie Coochie Man - Blue House
TTITLE14=Big Long Buick - Slip and the Spinouts
TTITLE15=Lonesome Train - Lady A Blues Band
EXTD=
EXTT0=
EXTT1=
EXTT2=
EXTT3=
EXTT4=
EXTT5=
EXTT6=
EXTT7=
EXTT8=
EXTT9=
EXTT10=
EXTT11=
EXTT12=
EXTT13=
EXTT14=
EXTT15=
PLAYORDER=
